<?xml version="1.0" encoding="UTF-8" standalone="no"?>
<svg
   width="297mm"
   height="210mm"
   viewBox="0 0 297 210"
   version="1.1"
   id="svg8"
   inkscape:version="1.1 (ce6663b3b7, 2021-05-25)"
   sodipodi:docname="file.svg"
   xmlns:inkscape="http://www.inkscape.org/namespaces/inkscape"
   xmlns:sodipodi="http://sodipodi.sourceforge.net/DTD/sodipodi-0.dtd"
   xmlns="http://www.w3.org/2000/svg"
   xmlns:svg="http://www.w3.org/2000/svg"
   xmlns:rdf="http://www.w3.org/1999/02/22-rdf-syntax-ns#"
   xmlns:cc="http://creativecommons.org/ns#"
   xmlns:dc="http://purl.org/dc/elements/1.1/">
  <defs
     id="defs2">
    <linearGradient
       id="linearGradient965"
       inkscape:swatch="solid">
      <stop
         style="stop-color:#0b061a;stop-opacity:1;"
         offset="0"
         id="stop963" />
    </linearGradient>
    <linearGradient
       id="linearGradient869"
       inkscape:swatch="solid">
      <stop
         style="stop-color:#000000;stop-opacity:1;"
         offset="0"
         id="stop867" />
    </linearGradient>
    <linearGradient
       id="linearGradient861"
       inkscape:swatch="solid">
      <stop
         style="stop-color:#000000;stop-opacity:1;"
         offset="0"
         id="stop859" />
    </linearGradient>
    <inkscape:path-effect
       effect="bspline"
       id="path-effect855"
       is_visible="true"
       lpeversion="1"
       weight="33.333333"
       steps="2"
       helper_size="0"
       apply_no_weight="true"
       apply_with_weight="true"
       only_selected="false" />
    <linearGradient
       id="linearGradient849"
       inkscape:swatch="solid">
      <stop
         style="stop-color:#4d4d4d;stop-opacity:1;"
         offset="0"
         id="stop847" />
    </linearGradient>
    <linearGradient
       id="linearGradient843"
       inkscape:swatch="solid">
      <stop
         style="stop-color:#9b00ff;stop-opacity:1;"
         offset="0"
         id="stop841" />
    </linearGradient>
    <linearGradient
       id="linearGradient837"
       inkscape:swatch="solid">
      <stop
         style="stop-color:#9b00ff;stop-opacity:1;"
         offset="0"
         id="stop835" />
    </linearGradient>
  </defs>
  <sodipodi:namedview
     id="base"
     pagecolor="#ffffff"
     bordercolor="#666666"
     borderopacity="1.0"
     inkscape:pageopacity="0.0"
     inkscape:pageshadow="2"
     inkscape:zoom="0.5"
     inkscape:cx="401"
     inkscape:cy="401"
     inkscape:document-units="mm"
     inkscape:current-layer="layer1"
     inkscape:document-rotation="0"
     showgrid="false"
     inkscape:window-width="1366"
     inkscape:window-height="694"
     inkscape:window-x="0"
     inkscape:window-y="0"
     inkscape:window-maximized="1"
     inkscape:pagecheckerboard="0" />
  <metadata
     id="metadata5">
    <rdf:RDF>
      <cc:Work
         rdf:about="">
        <dc:format>image/svg+xml</dc:format>
        <dc:type
           rdf:resource="http://purl.org/dc/dcmitype/StillImage" />
      </cc:Work>
    </rdf:RDF>
  </metadata>
  <g
     inkscape:label="Layer 1"
     inkscape:groupmode="layer"
     id="layer1">
    <path
       style="fill:#2a2d2e;stroke:none;stroke-width:1.11691;fill-opacity:1"
       d="m 97.952548,26.874173 c -10.3587,3.346047 -8.93921,13.88926 -8.93921,22.639939 v 65.897878 44.67652 c 0,5.82693 -1.35963,13.79053 2.06036,18.88588 5.34466,7.96248 17.636732,5.6862 25.862462,5.6862 h 58.07948 c 7.96581,0 19.30583,2.03837 26.79362,-0.94379 8.27073,-3.29265 7.83068,-11.73651 7.83068,-19.16064 V 110.94433 77.436937 c 0.001,-4.23634 1.26435,-10.24969 -0.53724,-14.17921 -2.59012,-5.64644 -9.64789,-10.52624 -13.98263,-14.860528 -6.63558,-6.635134 -13.86983,-16.82004 -22.33826,-21.054146 -4.24874,-2.124257 -9.91596,-1.284115 -14.51987,-1.284115 H 129.2222 c -9.54827,0 -22.12593,-2.13833 -31.269652,0.815235 M 205.17228,67.384717 v 78.183923 20.10443 c -0.005,3.46131 0.48698,7.75808 -1.43522,10.83628 -3.94606,6.32062 -17.91305,3.68358 -24.25378,3.68358 h -62.54712 c -6.01392,0 -18.183572,2.23384 -22.019942,-3.745 -1.94354,-3.02795 -1.43066,-7.35152 -1.43513,-10.77486 l -1.1e-4,-21.22135 V 64.033977 c 0,-8.33038 -3.87513,-28.627259 5.63125,-32.563931 4.864062,-2.014352 11.548672,-0.943456 16.707012,-0.943456 h 34.62431 c 4.44642,0 13.39179,-1.677604 17.06978,1.284115 2.16904,1.747299 1.88089,5.170526 1.91327,7.652195 0.0737,5.664201 -1.00521,12.37506 0.58637,17.865697 3.98738,13.75043 24.40344,10.05612 35.15931,10.05612 m -30.15664,-32.390475 25.689,26.805915 c -6.45465,0 -17.46629,2.09622 -23.12234,-1.43523 -6.00229,-3.74647 -4.71002,-19.634666 -2.56666,-25.370685 z"
       id="path1637" />
    <text
       xml:space="preserve"
       style="font-size:39.5334px;line-height:1.25;font-family:'Nimbus Mono PS';-inkscape-font-specification:'Nimbus Mono PS';fill:#2a2d2e;fill-opacity:1;stroke-width:0.205903"
       x="111.70489"
       y="112.31421"
       id="text7027"
       transform="scale(0.88451561,1.1305623)"><tspan
         sodipodi:role="line"
         id="tspan7025"
         style="font-size:39.5334px;fill:#2a2d2e;fill-opacity:1;stroke-width:0.205903"
         x="111.70489"
         y="112.31421">Files</tspan></text>
  </g>
</svg>
