<?xml version="1.0" encoding="UTF-8" standalone="no"?>
<svg
   width="297mm"
   height="210mm"
   viewBox="0 0 297 210"
   version="1.1"
   id="svg8"
   inkscape:version="1.1 (ce6663b3b7, 2021-05-25)"
   sodipodi:docname="close3.svg"
   xmlns:inkscape="http://www.inkscape.org/namespaces/inkscape"
   xmlns:sodipodi="http://sodipodi.sourceforge.net/DTD/sodipodi-0.dtd"
   xmlns="http://www.w3.org/2000/svg"
   xmlns:svg="http://www.w3.org/2000/svg"
   xmlns:rdf="http://www.w3.org/1999/02/22-rdf-syntax-ns#"
   xmlns:cc="http://creativecommons.org/ns#"
   xmlns:dc="http://purl.org/dc/elements/1.1/">
  <defs
     id="defs2">
    <linearGradient
       id="linearGradient965"
       inkscape:swatch="solid">
      <stop
         style="stop-color:#0b061a;stop-opacity:1;"
         offset="0"
         id="stop963" />
    </linearGradient>
    <linearGradient
       id="linearGradient869"
       inkscape:swatch="solid">
      <stop
         style="stop-color:#000000;stop-opacity:1;"
         offset="0"
         id="stop867" />
    </linearGradient>
    <linearGradient
       id="linearGradient861"
       inkscape:swatch="solid">
      <stop
         style="stop-color:#000000;stop-opacity:1;"
         offset="0"
         id="stop859" />
    </linearGradient>
    <inkscape:path-effect
       effect="bspline"
       id="path-effect855"
       is_visible="true"
       lpeversion="1"
       weight="33.333333"
       steps="2"
       helper_size="0"
       apply_no_weight="true"
       apply_with_weight="true"
       only_selected="false" />
    <linearGradient
       id="linearGradient849"
       inkscape:swatch="solid">
      <stop
         style="stop-color:#4d4d4d;stop-opacity:1;"
         offset="0"
         id="stop847" />
    </linearGradient>
    <linearGradient
       id="linearGradient843"
       inkscape:swatch="solid">
      <stop
         style="stop-color:#9b00ff;stop-opacity:1;"
         offset="0"
         id="stop841" />
    </linearGradient>
    <linearGradient
       id="linearGradient837"
       inkscape:swatch="solid">
      <stop
         style="stop-color:#9b00ff;stop-opacity:1;"
         offset="0"
         id="stop835" />
    </linearGradient>
  </defs>
  <sodipodi:namedview
     id="base"
     pagecolor="#ffffff"
     bordercolor="#666666"
     borderopacity="1.0"
     inkscape:pageopacity="0.0"
     inkscape:pageshadow="2"
     inkscape:zoom="0.5"
     inkscape:cx="3"
     inkscape:cy="401"
     inkscape:document-units="mm"
     inkscape:current-layer="layer1"
     inkscape:document-rotation="0"
     showgrid="false"
     inkscape:window-width="1366"
     inkscape:window-height="694"
     inkscape:window-x="0"
     inkscape:window-y="0"
     inkscape:window-maximized="1"
     inkscape:pagecheckerboard="0" />
  <metadata
     id="metadata5">
    <rdf:RDF>
      <cc:Work
         rdf:about="">
        <dc:format>image/svg+xml</dc:format>
        <dc:type
           rdf:resource="http://purl.org/dc/dcmitype/StillImage" />
      </cc:Work>
    </rdf:RDF>
  </metadata>
  <g
     inkscape:label="Layer 1"
     inkscape:groupmode="layer"
     id="layer1">
    <path
       style="fill:#fefefe;stroke:none;stroke-width:1.23512;fill-opacity:1"
       d="M 101.9915,49.727955 C 101.9865,42.100533 102.21532,33.898028 95.446937,28.654779 84.49905,20.174065 51.268094,22.420961 47.55961,37.525963 44.897561,48.369492 46.982638,61.788402 46.982638,72.911974 v 71.992496 c 0,10.18509 -3.644092,28.89459 2.442026,37.63498 6.616068,9.50299 30.961987,5.07242 41.315023,5.07242 h 98.765873 c 11.73564,0 29.83856,3.32994 39.92643,-3.56425 13.17461,-9.00271 15.56125,-35.79613 19.30436,-50.12508 3.61433,-13.8372 15.48998,-37.139566 11.21555,-51.235077 -3.52058,-11.613125 -14.42231,-4.468298 -20.79211,-10.650746 -6.02346,-5.845785 -2.95547,-14.484399 -12.15318,-19.660537 -9.93912,-5.593329 -26.40552,-2.648225 -37.50105,-2.648225 H 101.9915 m -6.251013,6.101057 H 198.25698 c 15.91381,0 32.37271,-1.549667 32.50521,18.303174 H 120.74452 c -13.13588,0 -33.004068,-3.770457 -43.596263,5.363802 -6.850479,5.907656 -8.383238,14.520766 -10.702979,22.701052 -4.126545,14.55347 -8.751543,29.15574 -11.961428,43.92764 C 51.461493,138.23112 53.233652,127.64945 53.233652,119.28 V 64.370492 c 0,-8.113306 -2.354519,-20.597047 1.924812,-27.873901 4.523358,-7.691726 30.159978,-7.835101 36.390213,-2.128292 5.69492,5.216404 4.19181,14.589581 4.19181,21.460713 m -8.750403,25.03997 c 11.413473,-3.211483 26.908566,-0.635738 38.755236,-0.635738 h 82.51326 c 10.74549,0 32.94405,-4.128221 42.23555,1.402879 7.60122,4.524791 0.95516,17.975301 -0.78138,24.221557 -4.96829,17.87366 -10.04036,35.74365 -14.72861,53.68932 -2.10034,8.0412 -3.87813,17.85534 -13.00835,21.00594 -10.97301,3.78632 -27.15187,0.95786 -38.72123,0.95786 H 96.990687 c -9.870575,0 -32.374839,4.09259 -40.604409,-1.56797 -6.608072,-4.54528 0.177176,-18.2202 1.690656,-24.05647 C 62.837686,137.52462 68.104779,119.28 73.10022,100.97685 75.289824,92.953944 77.677454,83.489141 86.990084,80.868982 Z"
       id="path332" />
  </g>
</svg>
