<?xml version="1.0" encoding="UTF-8" standalone="no"?>
<svg
   width="297mm"
   height="210mm"
   viewBox="0 0 297 210"
   version="1.1"
   id="svg8"
   inkscape:version="1.1 (ce6663b3b7, 2021-05-25)"
   sodipodi:docname="power.svg"
   xmlns:inkscape="http://www.inkscape.org/namespaces/inkscape"
   xmlns:sodipodi="http://sodipodi.sourceforge.net/DTD/sodipodi-0.dtd"
   xmlns="http://www.w3.org/2000/svg"
   xmlns:svg="http://www.w3.org/2000/svg"
   xmlns:rdf="http://www.w3.org/1999/02/22-rdf-syntax-ns#"
   xmlns:cc="http://creativecommons.org/ns#"
   xmlns:dc="http://purl.org/dc/elements/1.1/">
  <defs
     id="defs2">
    <linearGradient
       id="linearGradient965"
       inkscape:swatch="solid">
      <stop
         style="stop-color:#0b061a;stop-opacity:1;"
         offset="0"
         id="stop963" />
    </linearGradient>
    <linearGradient
       id="linearGradient869"
       inkscape:swatch="solid">
      <stop
         style="stop-color:#000000;stop-opacity:1;"
         offset="0"
         id="stop867" />
    </linearGradient>
    <linearGradient
       id="linearGradient861"
       inkscape:swatch="solid">
      <stop
         style="stop-color:#000000;stop-opacity:1;"
         offset="0"
         id="stop859" />
    </linearGradient>
    <inkscape:path-effect
       effect="bspline"
       id="path-effect855"
       is_visible="true"
       lpeversion="1"
       weight="33.333333"
       steps="2"
       helper_size="0"
       apply_no_weight="true"
       apply_with_weight="true"
       only_selected="false" />
    <linearGradient
       id="linearGradient849"
       inkscape:swatch="solid">
      <stop
         style="stop-color:#4d4d4d;stop-opacity:1;"
         offset="0"
         id="stop847" />
    </linearGradient>
    <linearGradient
       id="linearGradient843"
       inkscape:swatch="solid">
      <stop
         style="stop-color:#9b00ff;stop-opacity:1;"
         offset="0"
         id="stop841" />
    </linearGradient>
    <linearGradient
       id="linearGradient837"
       inkscape:swatch="solid">
      <stop
         style="stop-color:#9b00ff;stop-opacity:1;"
         offset="0"
         id="stop835" />
    </linearGradient>
  </defs>
  <sodipodi:namedview
     id="base"
     pagecolor="#ffffff"
     bordercolor="#666666"
     borderopacity="1.0"
     inkscape:pageopacity="0.0"
     inkscape:pageshadow="2"
     inkscape:zoom="0.5"
     inkscape:cx="175"
     inkscape:cy="401"
     inkscape:document-units="mm"
     inkscape:current-layer="layer1"
     inkscape:document-rotation="0"
     showgrid="false"
     inkscape:window-width="1366"
     inkscape:window-height="694"
     inkscape:window-x="0"
     inkscape:window-y="0"
     inkscape:window-maximized="1"
     inkscape:pagecheckerboard="0" />
  <metadata
     id="metadata5">
    <rdf:RDF>
      <cc:Work
         rdf:about="">
        <dc:format>image/svg+xml</dc:format>
        <dc:type
           rdf:resource="http://purl.org/dc/dcmitype/StillImage" />
      </cc:Work>
    </rdf:RDF>
  </metadata>
  <g
     inkscape:label="Layer 1"
     inkscape:groupmode="layer"
     id="layer1">
    <path
       style="fill:#fefefe;stroke-width:1.04054;fill-opacity:1"
       d="M 139.20755,197.69242 C 106.62561,191.40417 81.688374,170.45353 71.458239,140.77388 60.45498,108.85126 68.01442,75.950644 91.856075,51.997298 104.71169,39.081457 113.27207,36.105404 120.41507,42.068645 c 3.05743,2.552453 3.56302,3.676977 3.99495,8.885443 0.49318,5.947161 0.48258,5.973502 -3.95612,9.824274 -21.444375,18.603965 -28.070465,30.638829 -28.070465,50.984048 0,18.13379 4.92996,30.14222 17.654105,43.00201 12.37979,12.51176 24.58152,17.59255 42.13519,17.54509 11.61855,-0.0314 16.60368,-1.1379 26.57518,-5.89857 5.89407,-2.81398 9.71584,-5.6646 15.6156,-11.64749 12.21274,-12.38478 17.69296,-25.64029 17.66921,-42.73806 -0.0264,-18.989209 -7.87096,-34.580645 -23.78867,-47.281131 -8.17511,-6.522792 -10.08993,-10.353344 -8.34128,-16.686468 2.43042,-8.802233 12.19058,-11.55224 20.78838,-5.857296 10.48973,6.948111 22.2104,20.573678 28.47727,33.105541 17.39998,34.794714 7.41329,78.967364 -23.57835,104.290654 -7.38107,6.03107 -22.16062,13.60885 -31.52457,16.16327 -6.13132,1.67258 -29.49372,2.96776 -34.85795,1.93246 z m 6.44074,-81.57308 c -6.32893,-3.85865 -6.44074,-4.75804 -6.44074,-51.812825 V 21.764998 l 2.37244,-3.520459 c 4.35515,-6.4626 11.28677,-7.956667 17.504,-3.772873 6.07726,4.089607 6.25811,5.700237 5.92001,52.72286 -0.2866,39.864254 -0.41533,42.353434 -2.33695,45.191434 -2.15613,3.18435 -7.25853,5.84369 -11.19979,5.83723 -1.30604,-0.003 -3.92458,-0.94887 -5.81897,-2.10385 z"
       id="path1720" />
  </g>
</svg>
