<?xml version="1.0" encoding="UTF-8" standalone="no"?>
<svg
   width="297mm"
   height="210mm"
   viewBox="0 0 297 210"
   version="1.1"
   id="svg8"
   inkscape:version="1.1 (ce6663b3b7, 2021-05-25)"
   sodipodi:docname="settings.svg"
   xmlns:inkscape="http://www.inkscape.org/namespaces/inkscape"
   xmlns:sodipodi="http://sodipodi.sourceforge.net/DTD/sodipodi-0.dtd"
   xmlns="http://www.w3.org/2000/svg"
   xmlns:svg="http://www.w3.org/2000/svg"
   xmlns:rdf="http://www.w3.org/1999/02/22-rdf-syntax-ns#"
   xmlns:cc="http://creativecommons.org/ns#"
   xmlns:dc="http://purl.org/dc/elements/1.1/">
  <defs
     id="defs2">
    <linearGradient
       id="linearGradient965"
       inkscape:swatch="solid">
      <stop
         style="stop-color:#0b061a;stop-opacity:1;"
         offset="0"
         id="stop963" />
    </linearGradient>
    <linearGradient
       id="linearGradient869"
       inkscape:swatch="solid">
      <stop
         style="stop-color:#000000;stop-opacity:1;"
         offset="0"
         id="stop867" />
    </linearGradient>
    <linearGradient
       id="linearGradient861"
       inkscape:swatch="solid">
      <stop
         style="stop-color:#000000;stop-opacity:1;"
         offset="0"
         id="stop859" />
    </linearGradient>
    <inkscape:path-effect
       effect="bspline"
       id="path-effect855"
       is_visible="true"
       lpeversion="1"
       weight="33.333333"
       steps="2"
       helper_size="0"
       apply_no_weight="true"
       apply_with_weight="true"
       only_selected="false" />
    <linearGradient
       id="linearGradient849"
       inkscape:swatch="solid">
      <stop
         style="stop-color:#4d4d4d;stop-opacity:1;"
         offset="0"
         id="stop847" />
    </linearGradient>
    <linearGradient
       id="linearGradient843"
       inkscape:swatch="solid">
      <stop
         style="stop-color:#9b00ff;stop-opacity:1;"
         offset="0"
         id="stop841" />
    </linearGradient>
    <linearGradient
       id="linearGradient837"
       inkscape:swatch="solid">
      <stop
         style="stop-color:#9b00ff;stop-opacity:1;"
         offset="0"
         id="stop835" />
    </linearGradient>
  </defs>
  <sodipodi:namedview
     id="base"
     pagecolor="#ffffff"
     bordercolor="#666666"
     borderopacity="1.0"
     inkscape:pageopacity="0.0"
     inkscape:pageshadow="2"
     inkscape:zoom="0.5"
     inkscape:cx="107"
     inkscape:cy="401"
     inkscape:document-units="mm"
     inkscape:current-layer="layer1"
     inkscape:document-rotation="0"
     showgrid="false"
     inkscape:window-width="1366"
     inkscape:window-height="694"
     inkscape:window-x="0"
     inkscape:window-y="0"
     inkscape:window-maximized="1"
     inkscape:pagecheckerboard="0" />
  <metadata
     id="metadata5">
    <rdf:RDF>
      <cc:Work
         rdf:about="">
        <dc:format>image/svg+xml</dc:format>
        <dc:type
           rdf:resource="http://purl.org/dc/dcmitype/StillImage" />
      </cc:Work>
    </rdf:RDF>
  </metadata>
  <g
     inkscape:label="Layer 1"
     inkscape:groupmode="layer"
     id="layer1">
    <path
       style="fill:#fefefe;stroke:none;stroke-width:0.435131;fill-opacity:1"
       d="m 129.08957,42.492277 c -3.03286,0.488565 -5.89297,1.71646 -8.70261,2.922511 -1.40416,0.602743 -3.2043,1.762845 -4.78643,1.549196 -1.89282,-0.255596 -3.70732,-2.100245 -5.22157,-3.15226 -3.49584,-2.428899 -6.97123,-4.885168 -10.443135,-7.348485 -1.920232,-1.362568 -4.41527,-3.500104 -6.962089,-2.868686 -1.772505,0.439439 -3.106833,2.010086 -4.351306,3.24255 l -6.962089,6.960566 c -2.184661,2.18466 -6.773461,5.305852 -6.830419,8.702612 -0.04095,2.441952 2.081926,4.662859 3.410684,6.526958 2.262635,3.173843 4.451386,6.400336 6.715762,9.572873 1.106537,1.55037 2.861549,3.33136 3.316957,5.221567 0.329176,1.36631 -0.435871,2.697809 -0.955547,3.916175 -1.126162,2.639937 -1.89408,5.748075 -3.316609,8.223968 -1.325538,2.306627 -4.365622,2.169996 -6.692134,2.547254 -5.346493,0.866345 -11.918705,0.89724 -16.965176,2.858808 -1.900955,0.739287 -2.863986,2.21525 -3.018587,4.210324 -0.377781,4.873902 -0.03224,9.905752 -0.03224,14.794442 0,2.26877 -0.491741,5.24767 0.367555,7.39069 1.148397,2.86446 4.40796,3.01589 7.029665,3.45189 l 11.748526,1.95722 c 1.947296,0.32504 4.228294,0.4038 6.059933,1.16963 2.367893,0.98992 2.731749,3.90051 3.547706,6.04657 0.768963,2.02249 2.008084,4.00582 2.565443,6.09183 0.615797,2.30489 -1.489321,4.35914 -2.725614,6.09183 -2.698419,3.78215 -5.459061,7.51949 -8.140902,11.31339 -1.911137,2.70347 -3.566025,5.28336 -1.177071,8.26749 3.636821,4.54276 8.355333,8.52333 12.489291,12.61748 1.774289,1.75705 3.76636,3.96621 6.526959,3.21996 2.078619,-0.56219 3.929664,-2.24788 5.656697,-3.46581 3.19516,-2.25311 6.38945,-4.50621 9.57287,-6.77629 2.01291,-1.4355 4.32781,-3.76867 6.96209,-2.82052 2.50635,0.90203 4.88303,2.20394 7.39722,3.12032 1.36196,0.49649 3.00762,0.78411 3.87701,2.06513 1.0726,1.58083 1.14483,4.12461 1.4529,5.9639 l 2.03163,12.18366 c 0.35332,2.12474 0.38291,5.06361 2.05381,6.64444 2.44718,2.31577 8.35886,1.18791 11.47092,1.18791 h 9.57287 c 1.71354,-4.3e-4 3.68555,0.21365 5.17805,-0.80282 2.16521,-1.47422 2.28835,-4.67939 2.73828,-7.02953 1.20531,-6.29286 2.82748,-12.76586 3.39706,-19.14575 3.17298,-0.51127 6.20061,-1.77794 9.13775,-3.04721 1.31061,-0.56611 3.052,-1.80275 4.53928,-1.47379 1.79926,0.39814 3.56763,2.17043 5.03359,3.21561 3.47016,2.47416 6.94251,4.95222 10.44313,7.3833 2.0003,1.38894 4.32389,3.52934 6.96209,2.82835 1.77403,-0.47168 3.09596,-2.0077 4.35131,-3.25086 l 6.96209,-6.96079 c 2.16912,-2.16912 6.79978,-5.3199 6.82719,-8.70261 0.0187,-2.28487 -1.97505,-4.34608 -3.22083,-6.09183 l -7.52297,-10.44313 c -1.02865,-1.43854 -2.66257,-3.04156 -3.11728,-4.78644 -0.39336,-1.50946 0.60788,-3.02111 1.18878,-4.3513 1.29059,-2.95541 2.71782,-5.93475 3.23432,-9.13774 6.25022,-0.32809 12.54221,-1.9842 18.71062,-3.01024 2.41497,-0.40162 5.51267,-0.44992 7.02953,-2.6891 0.94032,-1.38807 0.80064,-3.1473 0.80282,-4.7438 v -9.57287 c 0,-3.25913 1.21662,-9.547201 -1.43506,-11.961305 -1.88716,-1.718766 -5.2938,-1.839297 -7.70268,-2.210028 -5.89646,-0.906813 -11.87863,-2.485901 -17.84036,-2.79876 -0.48604,-3.016325 -1.75967,-5.918646 -2.99152,-8.702612 -0.64095,-1.448114 -1.85975,-3.129459 -1.43158,-4.786436 0.48691,-1.884986 2.26181,-3.659448 3.36486,-5.221567 l 7.33457,-10.443134 c 1.78925,-2.51636 3.88136,-5.292058 1.76445,-8.267481 -3.41447,-4.798533 -8.64561,-8.911039 -12.82721,-13.052394 -1.78796,-1.770546 -3.75562,-3.965389 -6.52696,-3.161485 -2.07775,0.602656 -3.94185,2.289396 -5.6567,3.547533 l -9.57287,6.940768 c -1.76141,1.28333 -4.2521,3.932144 -6.61225,3.125804 -2.62645,-0.897196 -5.13584,-2.316505 -7.74706,-3.302859 -1.32933,-0.502097 -3.01546,-0.844589 -3.87702,-2.081795 -1.08173,-1.553765 -1.07781,-4.121514 -1.38023,-5.93975 l -2.10429,-12.618787 c -0.34898,-2.098417 -0.39771,-4.770032 -1.94373,-6.397464 -2.50461,-2.636151 -8.69608,-1.434886 -12.01613,-1.434886 l -9.57287,4.3e-5 c -1.57953,0.002 -3.35442,-0.149641 -4.71856,0.802642 -2.16825,1.513167 -2.24875,4.661206 -2.64298,7.029665 -1.04954,6.309698 -2.74611,12.752459 -3.0816,19.145745 m 26.10784,-19.145745 c 0.77192,5.820568 1.8976,11.613418 2.8649,17.405223 0.38639,2.312676 0.40815,5.418159 2.13649,7.196712 2.50374,2.576669 8.23354,3.177323 11.53357,4.560081 2.57293,1.078689 6.25892,4.259928 9.13774,3.561109 1.79013,-0.434696 3.32962,-1.894559 4.78644,-2.946269 3.04417,-2.198019 6.08269,-4.406829 9.13774,-6.589487 1.57735,-1.126901 4.40396,-4.069994 6.52696,-3.413339 1.2101,0.374256 2.17696,1.562902 3.04591,2.419544 1.81058,1.784645 6.10271,4.747362 6.48258,7.395305 0.27631,1.924583 -2.10429,4.206843 -3.11945,5.656698 -2.23657,3.193423 -4.45661,6.397289 -6.71885,9.572872 -1.09218,1.533836 -2.67519,3.276969 -2.90842,5.221567 -0.3233,2.694329 2.43021,5.869477 3.4619,8.267481 1.44638,3.363124 2.12866,8.960209 4.74205,11.547495 1.79231,1.774463 4.84866,1.803617 7.19793,2.195669 5.64713,0.943363 11.29512,2.039457 16.9701,2.791798 v 15.229569 c -5.66366,0.75104 -11.35125,1.83625 -16.9701,2.87926 -2.19479,0.40728 -5.07231,0.48996 -6.76279,2.12213 -2.58207,2.49287 -3.22128,7.83931 -4.61456,11.09844 -1.09479,2.56031 -4.21033,6.25762 -3.56372,9.13774 0.39771,1.77099 1.85409,3.34572 2.88274,4.78644 2.28574,3.20126 4.58932,6.39381 6.90552,9.57287 1.09566,1.50338 3.7865,4.03279 3.19516,6.09183 -0.69969,2.43586 -4.132,4.79253 -5.8747,6.52653 -1.05867,1.05301 -2.34709,2.75611 -3.91617,3.01719 -1.94808,0.32417 -4.20554,-1.98202 -5.6567,-3.01676 -3.17384,-2.26311 -6.38728,-4.46879 -9.57287,-6.71493 -1.53775,-1.08479 -3.29176,-2.7348 -5.22157,-3.01546 -2.89405,-0.42077 -6.58352,2.56161 -9.13774,3.69295 -3.25739,1.44203 -8.57816,1.95505 -11.1128,4.49751 -1.80362,1.80928 -1.8393,4.83126 -2.29227,7.19663 -1.08217,5.64973 -2.07078,11.316 -3.12989,16.97009 h -15.22957 c -0.75365,-5.68281 -1.92067,-11.31644 -2.8649,-16.97009 -0.3864,-2.31272 -0.40815,-5.41825 -2.13649,-7.19663 -2.51941,-2.59338 -8.21875,-3.17863 -11.53357,-4.5606 -2.57859,-1.07521 -6.25414,-4.25993 -9.13775,-3.56067 -1.9211,0.46602 -3.64726,2.07339 -5.22156,3.19559 -3.02851,2.15912 -6.10967,4.2447 -9.13774,6.40426 -1.442894,1.02908 -3.725589,3.38923 -5.656698,3.07724 -1.566905,-0.25368 -2.86094,-1.96635 -3.916175,-3.01632 -1.764933,-1.75576 -5.142112,-4.08066 -5.898674,-6.52653 -0.597304,-1.93111 1.769154,-4.22773 2.791145,-5.6567 l 6.838773,-9.57287 c 1.091743,-1.53035 2.720872,-3.28523 2.967156,-5.22157 0.371601,-2.92625 -2.562919,-6.5548 -3.706878,-9.13774 -1.427446,-3.22432 -1.947949,-8.62124 -4.497422,-11.09844 -1.756361,-1.70658 -4.905401,-1.78925 -7.196712,-2.20263 -5.627587,-1.01472 -11.301994,-2.04729 -16.970092,-2.79876 V 98.188991 c 5.642991,-0.295889 11.391718,-1.59954 16.970092,-2.503741 2.2072,-0.357678 5.064093,-0.422077 6.762713,-2.062519 2.687322,-2.595554 3.40098,-8.535086 4.815241,-11.968702 1.034741,-2.512444 3.99885,-5.869911 3.363125,-8.702611 -0.39858,-1.775768 -1.858008,-3.332665 -2.875343,-4.786437 -2.235701,-3.193858 -4.45491,-6.398595 -6.718764,-9.572872 -1.036873,-1.453772 -3.322483,-3.71558 -3.079768,-5.656698 0.317341,-2.537551 4.290301,-5.260511 6.000277,-6.961697 1.046402,-1.04105 2.351707,-2.777526 3.916175,-3.002053 1.888902,-0.271087 4.23121,2.054121 5.656698,3.064102 3.184721,2.256544 6.361171,4.532364 9.572871,6.749963 1.45856,1.007328 3.02851,2.420632 4.78643,2.8488 3.00632,0.73189 6.92989,-2.453266 9.57288,-3.623767 3.25608,-1.441457 8.58034,-1.954911 11.11236,-4.497423 1.77751,-1.784427 1.80449,-4.852533 2.19567,-7.196711 0.94336,-5.646951 2.03946,-11.29512 2.7918,-16.970093 h 15.22957 m -11.74853,51.538171 c -4.46444,0.614404 -8.82619,2.08384 -12.61878,4.542763 -3.78956,2.457182 -6.82329,5.437827 -9.33747,9.188652 -8.09865,12.084442 -6.30635,29.171152 3.76779,39.546842 6.87028,7.07566 17.17461,10.33218 26.89107,8.99502 4.46053,-0.61397 8.83228,-2.07949 12.61879,-4.5432 18.45041,-12.00395 19.12007,-39.392804 1.30539,-52.29051 -3.00936,-2.178699 -6.41556,-3.742993 -10.008,-4.687662 -4.01452,-1.055626 -8.50289,-1.318445 -12.61879,-0.751905 m 0.87026,7.776653 c 3.87092,-0.492132 8.0608,-0.170571 11.74853,1.117851 18.58965,6.495194 20.47246,33.417593 3.48104,42.926933 -2.53811,1.4207 -5.38387,2.30837 -8.26748,2.67519 -3.87092,0.49213 -8.06079,0.17057 -11.74852,-1.11785 -2.55552,-0.89289 -4.84823,-2.2827 -6.95034,-3.97884 -15.51502,-12.51783 -8.00118,-39.11345 11.73677,-41.623284 z"
       id="path132" />
  </g>
</svg>
