<?xml version="1.0" encoding="UTF-8" standalone="no"?>
<svg
   width="297mm"
   height="210mm"
   viewBox="0 0 297 210"
   version="1.1"
   id="svg8"
   inkscape:version="1.1 (ce6663b3b7, 2021-05-25)"
   sodipodi:docname="videos.svg"
   xmlns:inkscape="http://www.inkscape.org/namespaces/inkscape"
   xmlns:sodipodi="http://sodipodi.sourceforge.net/DTD/sodipodi-0.dtd"
   xmlns="http://www.w3.org/2000/svg"
   xmlns:svg="http://www.w3.org/2000/svg"
   xmlns:rdf="http://www.w3.org/1999/02/22-rdf-syntax-ns#"
   xmlns:cc="http://creativecommons.org/ns#"
   xmlns:dc="http://purl.org/dc/elements/1.1/">
  <defs
     id="defs2">
    <linearGradient
       id="linearGradient965"
       inkscape:swatch="solid">
      <stop
         style="stop-color:#0b061a;stop-opacity:1;"
         offset="0"
         id="stop963" />
    </linearGradient>
    <linearGradient
       id="linearGradient869"
       inkscape:swatch="solid">
      <stop
         style="stop-color:#000000;stop-opacity:1;"
         offset="0"
         id="stop867" />
    </linearGradient>
    <linearGradient
       id="linearGradient861"
       inkscape:swatch="solid">
      <stop
         style="stop-color:#000000;stop-opacity:1;"
         offset="0"
         id="stop859" />
    </linearGradient>
    <inkscape:path-effect
       effect="bspline"
       id="path-effect855"
       is_visible="true"
       lpeversion="1"
       weight="33.333333"
       steps="2"
       helper_size="0"
       apply_no_weight="true"
       apply_with_weight="true"
       only_selected="false" />
    <linearGradient
       id="linearGradient849"
       inkscape:swatch="solid">
      <stop
         style="stop-color:#4d4d4d;stop-opacity:1;"
         offset="0"
         id="stop847" />
    </linearGradient>
    <linearGradient
       id="linearGradient843"
       inkscape:swatch="solid">
      <stop
         style="stop-color:#9b00ff;stop-opacity:1;"
         offset="0"
         id="stop841" />
    </linearGradient>
    <linearGradient
       id="linearGradient837"
       inkscape:swatch="solid">
      <stop
         style="stop-color:#9b00ff;stop-opacity:1;"
         offset="0"
         id="stop835" />
    </linearGradient>
  </defs>
  <sodipodi:namedview
     id="base"
     pagecolor="#ffffff"
     bordercolor="#666666"
     borderopacity="1.0"
     inkscape:pageopacity="0.0"
     inkscape:pageshadow="2"
     inkscape:zoom="0.5"
     inkscape:cx="401"
     inkscape:cy="401"
     inkscape:document-units="mm"
     inkscape:current-layer="layer1"
     inkscape:document-rotation="0"
     showgrid="false"
     inkscape:window-width="1366"
     inkscape:window-height="694"
     inkscape:window-x="0"
     inkscape:window-y="0"
     inkscape:window-maximized="1"
     inkscape:pagecheckerboard="0" />
  <metadata
     id="metadata5">
    <rdf:RDF>
      <cc:Work
         rdf:about="">
        <dc:format>image/svg+xml</dc:format>
        <dc:type
           rdf:resource="http://purl.org/dc/dcmitype/StillImage" />
      </cc:Work>
    </rdf:RDF>
  </metadata>
  <g
     inkscape:label="Layer 1"
     inkscape:groupmode="layer"
     id="layer1">
    <path
       style="fill:#fefefe;stroke:none;stroke-width:0.888333;fill-opacity:0.99131715"
       d="M 139.66992,18.771826 C 127.34243,20.349155 115.64267,24.47607 104.89436,30.687594 95.664647,36.021643 87.405442,43.620309 80.940755,52.016092 50.86852,91.071233 59.668445,148.04084 99.544258,176.89349 c 7.898432,5.71529 17.359972,10.10665 26.750442,12.79261 11.04107,3.15767 23.34333,4.06479 34.77557,2.77359 12.07159,-1.3629 23.21404,-5.36309 33.88389,-11.05184 9.63819,-5.13916 18.34814,-12.88819 25.05446,-21.42221 31.24096,-39.75492 21.99958,-98.359818 -19.70436,-127.032723 -8.18117,-5.62477 -18.02178,-9.788854 -27.64213,-12.236047 -10.46209,-2.661183 -22.26707,-3.31732 -32.99221,-1.945044 m -5.21053,56.242657 c 3.72099,-0.905176 8.46071,3.214489 11.4523,4.938822 9.78711,5.641046 19.60361,11.24112 29.4255,16.82148 3.22252,1.830171 10.6208,4.538245 10.14018,9.191565 -0.45654,4.41612 -7.71036,6.99501 -11.03188,8.88447 l -26.75044,15.29628 c -3.42673,1.947 -7.56412,5.49051 -11.56385,6.00117 -6.12184,0.78232 -5.37666,-7.77646 -5.37809,-11.56248 V 87.415946 c 2.7e-4,-3.581236 -1.10122,-11.231935 3.70628,-12.401463 z"
       id="path2435" />
  </g>
</svg>
